<svg xmlns="http://www.w3.org/2000/svg" version="1.1" viewBox="0 0 400 250"
  width="100px" height="100px" style="shape-rendering:geometricPrecision; 
  text-rendering:geometricPrecision; image-rendering:optimizeQuality; 
  fill-rule:evenodd; clip-rule:evenodd" xmlns:xlink="http://www.w3.org/1999/xlink">
  <defs>
    <style type="text/css">
      .black-favicon{ fill: #000; }
      .dark\:white-favicon { fill: #fff; }
    </style>
  </defs>
  <g>
    <path class="black-favicon dark:white-favicon" d="M 56.5,6.5 C 74.2955,4.15386 90.2955,8.32053 104.5,19C 96.1223,28.5903 89.9557,39.4236 86,51.5C 71.7302,40.0397 58.3969,41.0397 46,54.5C 43.1326,59.1022 41.4659,64.1022 41,69.5C 40.8333,88.1667 40.6667,106.833 40.5,125.5C 40.3631,145.874 40.8631,166.207 42,186.5C 48.855,203.508 61.0216,209.008 78.5,203C 87.2723,197.626 92.1057,189.793 93,179.5C 93.4994,174.177 93.666,168.844 93.5,163.5C 87.7676,163.717 82.101,163.217 76.5,162C 65.4871,155.623 62.9871,146.79 69,135.5C 71.7783,132.193 75.2783,130.026 79.5,129C 91.5,128.333 103.5,128.333 115.5,129C 123.114,130.947 127.614,135.78 129,143.5C 129.667,157.167 129.667,170.833 129,184.5C 125.197,215.636 108.031,234.803 77.5,242C 42.593,245.072 19.093,230.238 7,197.5C 6.08815,193.205 5.42148,188.872 5,184.5C 4.33333,144.5 4.33333,104.5 5,64.5C 8.99066,33.3486 26.1573,14.0153 56.5,6.5 Z"/>
  </g>
 
  <g>
    <path class="black-favicon dark:white-favicon" d="M 144.5,6.5 C 173.07,3.70282 194.903,14.3695 210,38.5C 213.751,46.0856 216.084,54.0856 217,62.5C 217.667,117.5 217.667,172.5 217,227.5C 212.967,241.083 204.134,245.583 190.5,241C 186.183,238.685 183.35,235.185 182,230.5C 181.667,175.833 181.333,121.167 181,66.5C 175.653,46.7409 163.153,39.9075 143.5,46C 137,49.8149 132.5,55.3149 130,62.5C 129.789,69.5514 129.122,76.5514 128,83.5C 122.355,93.941 113.855,97.1076 102.5,93C 98.1832,90.6849 95.3498,87.1849 94,82.5C 89.6695,42.771 106.503,17.4376 144.5,6.5 Z"/>
  </g>
 
  <g>
    <path class="black-favicon dark:white-favicon" d="M 233.5,6.5 C 266.223,3.93485 289.057,17.6015 302,47.5C 303.476,52.4057 304.476,57.4057 305,62.5C 305.667,117.833 305.667,173.167 305,228.5C 301.328,240.09 293.495,244.59 281.5,242C 275.667,240.167 271.833,236.333 270,230.5C 269.98,174.13 269.313,117.797 268,61.5C 260.616,45.2275 248.449,40.0608 231.5,46C 229,47.8333 226.5,49.6667 224,51.5C 220.536,39.0655 214.369,28.2322 205.5,19C 213.995,12.7864 223.328,8.61974 233.5,6.5 Z"/>
  </g>
 
  <g>
  <path fill="#fec300" d="M 382.5,54.5 C 387.739,53.9588 391.572,55.9588 394,60.5C 394.667,103.167 394.667,145.833 394,188.5C 390.044,194.759 384.878,195.926 378.5,192C 356.91,175.621 335.41,159.121 314,142.5C 313.333,130.5 313.333,118.5 314,106.5C 336.734,88.9194 359.567,71.586 382.5,54.5 Z M 368.5,96.5 C 369.662,114.995 369.829,133.662 369,152.5C 359.59,145.212 350.09,138.045 340.5,131C 338.955,129.178 338.288,127.011 338.5,124.5C 338.288,121.989 338.955,119.822 340.5,118C 350.082,111.055 359.416,103.889 368.5,96.5 Z"/>
  </g>

</svg>

